<svg xmlns="http://www.w3.org/2000/svg" width="360" height="55" viewBox="0 0 360 55"><defs><style>.a{fill:#fff;}</style></defs><g transform="translate(0 -14)"><g transform="translate(0 14)"><rect width="360" height="55"/></g><path class="a" d="M29,14.937H9.984L18.719,6.2,16.5,4,4,16.5,16.5,29l2.2-2.2L9.984,18.063H29Z" transform="translate(16 25)"/><path class="a" d="M22.048,2H5.381A2.38,2.38,0,0,0,3,4.381V21.048a2.38,2.38,0,0,0,2.381,2.381h4.762L13.714,27l3.571-3.571h4.762a2.388,2.388,0,0,0,2.381-2.381V4.381A2.388,2.388,0,0,0,22.048,2ZM14.9,21.048H12.524V18.667H14.9Zm2.464-9.226-1.071,1.1A4.053,4.053,0,0,0,14.9,16.286H12.524v-.6a4.792,4.792,0,0,1,1.393-3.369l1.476-1.5a2.328,2.328,0,0,0,.7-1.679,2.381,2.381,0,1,0-4.762,0H8.952a4.762,4.762,0,0,1,9.524,0A3.788,3.788,0,0,1,17.369,11.821Z" transform="translate(315.571 27)"/></g></svg>