<svg xmlns="http://www.w3.org/2000/svg" width="12" height="12" viewBox="0 0 12 12"><defs><style>.a{fill:#fff;}.b{fill:none;}</style></defs><path class="a" d="M18.539-39A5.955,5.955,0,0,0,13-35.236a5.955,5.955,0,0,0,5.539,3.764,5.955,5.955,0,0,0,5.539-3.764A5.955,5.955,0,0,0,18.539-39Zm0,6.273a2.514,2.514,0,0,1-2.518-2.509,2.514,2.514,0,0,1,2.518-2.509,2.514,2.514,0,0,1,2.518,2.509A2.514,2.514,0,0,1,18.539-32.727Zm0-4.014a1.506,1.506,0,0,0-1.511,1.505,1.506,1.506,0,0,0,1.511,1.505,1.506,1.506,0,0,0,1.511-1.505A1.506,1.506,0,0,0,18.539-36.742Z" transform="translate(-12.503 41.485)"/><rect class="b" width="12" height="12"/></svg>